<?xml version="1.0" encoding="UTF-8" standalone="no"?>
<svg
   xmlns:ns2="http://www.iki.fi/pav/software/textext/"
   xmlns:dc="http://purl.org/dc/elements/1.1/"
   xmlns:cc="http://creativecommons.org/ns#"
   xmlns:rdf="http://www.w3.org/1999/02/22-rdf-syntax-ns#"
   xmlns:svg="http://www.w3.org/2000/svg"
   xmlns="http://www.w3.org/2000/svg"
   xmlns:sodipodi="http://sodipodi.sourceforge.net/DTD/sodipodi-0.dtd"
   xmlns:inkscape="http://www.inkscape.org/namespaces/inkscape"
   sodipodi:docname="sistemas_de_coordenadas.svg"
   inkscape:version="1.0 (4035a4fb49, 2020-05-01)"
   id="svg2037"
   version="1.1"
   viewBox="0 0 198.4375 132.29167"
   height="500"
   width="750">
  <defs
     id="defs2031">
    <g
       id="id-b0fb94c5-cf0f-417a-94c6-bab6e7e9715e">
      <symbol
         overflow="visible"
         id="id-bf6bf5a4-0d57-4a0a-8aed-f7bac31b9b45">
        <path
           style="stroke:none"
           d=""
           id="id-844c332c-0798-42be-90c0-e3ad8aea12c9" />
      </symbol>
      <symbol
         overflow="visible"
         id="id-40af8bb2-5193-4315-b3e3-d66e80c5dcbd">
        <path
           style="stroke:none"
           d="M 6.328125,-5.765625 C 6.4375,-6.171875 6.609375,-6.46875 7.40625,-6.5 c 0.046875,0 0.171875,-0.015625 0.171875,-0.203125 0,0 0,-0.109375 -0.125,-0.109375 -0.328125,0 -0.6875,0.03125 -1.015625,0.03125 -0.34375,0 -0.71875,-0.03125 -1.046875,-0.03125 -0.0625,0 -0.171875,0 -0.171875,0.203125 C 5.21875,-6.5 5.3125,-6.5 5.390625,-6.5 c 0.578125,0.015625 0.6875,0.21875 0.6875,0.4375 0,0.03125 -0.03125,0.1875 -0.03125,0.203125 l -0.90625,3.5625 C 4.8125,-0.953125 3.65625,-0.09375 2.65625,-0.09375 c -0.671875,0 -1.203125,-0.4375 -1.203125,-1.296875 0,-0.015625 0,-0.328125 0.109375,-0.765625 L 2.515625,-6.046875 C 2.609375,-6.40625 2.625,-6.5 3.359375,-6.5 c 0.265625,0 0.34375,0 0.34375,-0.203125 0,-0.109375 -0.109375,-0.109375 -0.140625,-0.109375 -0.28125,0 -1,0.03125 -1.28125,0.03125 -0.28125,0 -1,-0.03125 -1.28125,-0.03125 -0.078125,0 -0.1875,0 -0.1875,0.203125 C 0.8125,-6.5 0.890625,-6.5 1.09375,-6.5 c 0.015625,0 0.203125,0 0.375,0.015625 0.171875,0.03125 0.265625,0.03125 0.265625,0.171875 0,0.046875 -0.109375,0.46875 -0.171875,0.703125 l -0.21875,0.875 C 1.25,-4.34375 0.78125,-2.46875 0.734375,-2.265625 0.671875,-2 0.671875,-1.84375 0.671875,-1.6875 c 0,1.203125 0.90625,1.90625 1.953125,1.90625 1.25,0 2.484375,-1.125 2.8125,-2.4375 z m 0,0"
           id="id-3373e000-4da9-45db-be1b-500929b9247d" />
      </symbol>
    </g>
    <g
       id="id-d2834b86-2500-4210-a0e4-88641c7df937">
      <symbol
         overflow="visible"
         id="id-544a8ddb-99e7-4b39-9ea2-18ce19ba1196">
        <path
           style="stroke:none"
           d=""
           id="id-4001e4ef-2ab7-4c08-8139-4f8978e5217d" />
      </symbol>
      <symbol
         overflow="visible"
         id="id-fd4464d4-59dd-4c07-bd70-7fd63516ca6f">
        <path
           style="stroke:none"
           d="M 6.328125,-5.765625 C 6.4375,-6.171875 6.609375,-6.46875 7.40625,-6.5 c 0.046875,0 0.171875,-0.015625 0.171875,-0.203125 0,0 0,-0.109375 -0.125,-0.109375 -0.328125,0 -0.6875,0.03125 -1.015625,0.03125 -0.34375,0 -0.71875,-0.03125 -1.046875,-0.03125 -0.0625,0 -0.171875,0 -0.171875,0.203125 C 5.21875,-6.5 5.3125,-6.5 5.390625,-6.5 c 0.578125,0.015625 0.6875,0.21875 0.6875,0.4375 0,0.03125 -0.03125,0.1875 -0.03125,0.203125 l -0.90625,3.5625 C 4.8125,-0.953125 3.65625,-0.09375 2.65625,-0.09375 c -0.671875,0 -1.203125,-0.4375 -1.203125,-1.296875 0,-0.015625 0,-0.328125 0.109375,-0.765625 L 2.515625,-6.046875 C 2.609375,-6.40625 2.625,-6.5 3.359375,-6.5 c 0.265625,0 0.34375,0 0.34375,-0.203125 0,-0.109375 -0.109375,-0.109375 -0.140625,-0.109375 -0.28125,0 -1,0.03125 -1.28125,0.03125 -0.28125,0 -1,-0.03125 -1.28125,-0.03125 -0.078125,0 -0.1875,0 -0.1875,0.203125 C 0.8125,-6.5 0.890625,-6.5 1.09375,-6.5 c 0.015625,0 0.203125,0 0.375,0.015625 0.171875,0.03125 0.265625,0.03125 0.265625,0.171875 0,0.046875 -0.109375,0.46875 -0.171875,0.703125 l -0.21875,0.875 C 1.25,-4.34375 0.78125,-2.46875 0.734375,-2.265625 0.671875,-2 0.671875,-1.84375 0.671875,-1.6875 c 0,1.203125 0.90625,1.90625 1.953125,1.90625 1.25,0 2.484375,-1.125 2.8125,-2.4375 z m 0,0"
           id="id-6f200b1c-9da2-4e69-ae24-179755d8679a" />
      </symbol>
    </g>
    <g
       id="id-d2834b86-2500-4210-a0e4-88641c7df937-5">
      <symbol
         overflow="visible"
         id="id-544a8ddb-99e7-4b39-9ea2-18ce19ba1196-4">
        <path
           style="stroke:none"
           d=""
           id="id-4001e4ef-2ab7-4c08-8139-4f8978e5217d-4" />
      </symbol>
      <symbol
         overflow="visible"
         id="id-fd4464d4-59dd-4c07-bd70-7fd63516ca6f-4">
        <path
           style="stroke:none"
           d="M 6.328125,-5.765625 C 6.4375,-6.171875 6.609375,-6.46875 7.40625,-6.5 c 0.046875,0 0.171875,-0.015625 0.171875,-0.203125 0,0 0,-0.109375 -0.125,-0.109375 -0.328125,0 -0.6875,0.03125 -1.015625,0.03125 -0.34375,0 -0.71875,-0.03125 -1.046875,-0.03125 -0.0625,0 -0.171875,0 -0.171875,0.203125 C 5.21875,-6.5 5.3125,-6.5 5.390625,-6.5 c 0.578125,0.015625 0.6875,0.21875 0.6875,0.4375 0,0.03125 -0.03125,0.1875 -0.03125,0.203125 l -0.90625,3.5625 C 4.8125,-0.953125 3.65625,-0.09375 2.65625,-0.09375 c -0.671875,0 -1.203125,-0.4375 -1.203125,-1.296875 0,-0.015625 0,-0.328125 0.109375,-0.765625 L 2.515625,-6.046875 C 2.609375,-6.40625 2.625,-6.5 3.359375,-6.5 c 0.265625,0 0.34375,0 0.34375,-0.203125 0,-0.109375 -0.109375,-0.109375 -0.140625,-0.109375 -0.28125,0 -1,0.03125 -1.28125,0.03125 -0.28125,0 -1,-0.03125 -1.28125,-0.03125 -0.078125,0 -0.1875,0 -0.1875,0.203125 C 0.8125,-6.5 0.890625,-6.5 1.09375,-6.5 c 0.015625,0 0.203125,0 0.375,0.015625 0.171875,0.03125 0.265625,0.03125 0.265625,0.171875 0,0.046875 -0.109375,0.46875 -0.171875,0.703125 l -0.21875,0.875 C 1.25,-4.34375 0.78125,-2.46875 0.734375,-2.265625 0.671875,-2 0.671875,-1.84375 0.671875,-1.6875 c 0,1.203125 0.90625,1.90625 1.953125,1.90625 1.25,0 2.484375,-1.125 2.8125,-2.4375 z m 0,0"
           id="id-6f200b1c-9da2-4e69-ae24-179755d8679a-1" />
      </symbol>
    </g>
    <g
       id="id-dfe5e24a-d504-45f9-90b0-af490293758f">
      <symbol
         overflow="visible"
         id="id-7570fdac-00cd-44bb-bd84-0ca3cb94c65f">
        <path
           style="stroke:none"
           d=""
           id="id-c3247e72-5fe1-4db2-98e6-f97fe31850d6" />
      </symbol>
      <symbol
         overflow="visible"
         id="id-e4cc5205-6cac-4f18-a2f9-32eb4ba37836">
        <path
           style="stroke:none"
           d="m 4.8125,-6.65625 c 0,-0.046875 0.015625,-0.109375 0.015625,-0.15625 0,-0.09375 -0.0625,-0.109375 -0.109375,-0.109375 -0.109375,0 -0.109375,0.03125 -0.15625,0.203125 L 2.90625,-0.125 c -0.75,-0.09375 -1.125,-0.46875 -1.125,-1.125 0,-0.203125 0,-0.453125 0.53125,-1.84375 0.046875,-0.125 0.109375,-0.296875 0.109375,-0.5 0,-0.4375 -0.3125,-0.8125 -0.8125,-0.8125 -0.953125,0 -1.3125,1.453125 -1.3125,1.53125 0,0.109375 0.09375,0.109375 0.109375,0.109375 0.109375,0 0.109375,-0.03125 0.15625,-0.1875 0.28125,-0.9375 0.671875,-1.234375 1.015625,-1.234375 0.078125,0 0.25,0 0.25,0.3125 0,0.265625 -0.109375,0.515625 -0.234375,0.859375 C 1.109375,-1.75 1.109375,-1.5 1.109375,-1.328125 1.109375,-0.375 1.890625,0.03125 2.84375,0.09375 2.765625,0.453125 2.765625,0.46875 2.625,1 2.609375,1.109375 2.40625,1.90625 2.40625,1.9375 c 0,0.015625 0,0.109375 0.109375,0.109375 0.03125,0 0.078125,0 0.09375,-0.046875 0.03125,-0.015625 0.09375,-0.265625 0.125,-0.40625 l 0.375,-1.484375 c 0.375,0 1.25,0 2.1875,-1.0625 0.40625,-0.46875 0.609375,-0.90625 0.71875,-1.203125 0.09375,-0.25 0.3125,-1.109375 0.3125,-1.546875 0,-0.5625 -0.265625,-0.703125 -0.4375,-0.703125 -0.25,0 -0.5,0.265625 -0.5,0.484375 0,0.125 0.0625,0.1875 0.15625,0.265625 0.109375,0.109375 0.359375,0.359375 0.359375,0.84375 0,0.640625 -0.515625,1.453125 -0.875,1.8125 -0.875,0.890625 -1.515625,0.890625 -1.875,0.890625 z m 0,0"
           id="id-7a0daddb-474c-464e-a2ba-d9864e4311c7" />
      </symbol>
      <symbol
         overflow="visible"
         id="id-63c2f5e2-9267-47bb-a7c7-3ab65726ad18">
        <path
           style="stroke:none"
           d="M 6.328125,-5.765625 C 6.4375,-6.171875 6.609375,-6.46875 7.40625,-6.5 c 0.046875,0 0.171875,-0.015625 0.171875,-0.203125 0,0 0,-0.109375 -0.125,-0.109375 -0.328125,0 -0.6875,0.03125 -1.015625,0.03125 -0.34375,0 -0.71875,-0.03125 -1.046875,-0.03125 -0.0625,0 -0.171875,0 -0.171875,0.203125 C 5.21875,-6.5 5.3125,-6.5 5.390625,-6.5 c 0.578125,0.015625 0.6875,0.21875 0.6875,0.4375 0,0.03125 -0.03125,0.1875 -0.03125,0.203125 l -0.90625,3.5625 C 4.8125,-0.953125 3.65625,-0.09375 2.65625,-0.09375 c -0.671875,0 -1.203125,-0.4375 -1.203125,-1.296875 0,-0.015625 0,-0.328125 0.109375,-0.765625 L 2.515625,-6.046875 C 2.609375,-6.40625 2.625,-6.5 3.359375,-6.5 c 0.265625,0 0.34375,0 0.34375,-0.203125 0,-0.109375 -0.109375,-0.109375 -0.140625,-0.109375 -0.28125,0 -1,0.03125 -1.28125,0.03125 -0.28125,0 -1,-0.03125 -1.28125,-0.03125 -0.078125,0 -0.1875,0 -0.1875,0.203125 C 0.8125,-6.5 0.890625,-6.5 1.09375,-6.5 c 0.015625,0 0.203125,0 0.375,0.015625 0.171875,0.03125 0.265625,0.03125 0.265625,0.171875 0,0.046875 -0.109375,0.46875 -0.171875,0.703125 l -0.21875,0.875 C 1.25,-4.34375 0.78125,-2.46875 0.734375,-2.265625 0.671875,-2 0.671875,-1.84375 0.671875,-1.6875 c 0,1.203125 0.90625,1.90625 1.953125,1.90625 1.25,0 2.484375,-1.125 2.8125,-2.4375 z m 0,0"
           id="id-512bfd9a-761b-4c2b-b225-39a53be77db7" />
      </symbol>
      <symbol
         overflow="visible"
         id="id-17236045-3db1-4f1a-8f80-f39aff0d4526">
        <path
           style="stroke:none"
           d=""
           id="id-33fbc42d-dfaa-4167-ba75-0e5c507c5119" />
      </symbol>
      <symbol
         overflow="visible"
         id="id-0347fc18-b9b0-4413-99c7-d5facceb94e6">
        <path
           style="stroke:none"
           d="m 3.296875,2.390625 c 0,-0.03125 0,-0.046875 -0.171875,-0.21875 C 1.890625,0.921875 1.5625,-0.96875 1.5625,-2.5 c 0,-1.734375 0.375,-3.46875 1.609375,-4.703125 0.125,-0.125 0.125,-0.140625 0.125,-0.171875 0,-0.078125 -0.03125,-0.109375 -0.09375,-0.109375 -0.109375,0 -1,0.6875 -1.59375,1.953125 -0.5,1.09375 -0.625,2.203125 -0.625,3.03125 0,0.78125 0.109375,1.984375 0.65625,3.125 C 2.25,1.84375 3.09375,2.5 3.203125,2.5 c 0.0625,0 0.09375,-0.03125 0.09375,-0.109375 z m 0,0"
           id="id-59fce13a-5024-4b09-b4d0-1c717193ca18" />
      </symbol>
      <symbol
         overflow="visible"
         id="id-fbc366a8-286d-4e76-9f61-2cd1dbe02877">
        <path
           style="stroke:none"
           d="m 2.875,-2.5 c 0,-0.765625 -0.109375,-1.96875 -0.65625,-3.109375 -0.59375,-1.21875 -1.453125,-1.875 -1.546875,-1.875 -0.0625,0 -0.109375,0.046875 -0.109375,0.109375 0,0.03125 0,0.046875 0.1875,0.234375 0.984375,0.984375 1.546875,2.5625 1.546875,4.640625 0,1.71875 -0.359375,3.46875 -1.59375,4.71875 C 0.5625,2.34375 0.5625,2.359375 0.5625,2.390625 0.5625,2.453125 0.609375,2.5 0.671875,2.5 0.765625,2.5 1.671875,1.8125 2.25,0.546875 2.765625,-0.546875 2.875,-1.65625 2.875,-2.5 Z m 0,0"
           id="id-1ec95058-d4f2-4e8c-a217-c33b1d18b32f" />
      </symbol>
    </g>
    <g
       id="id-dfe5e24a-d504-45f9-90b0-af490293758f-2">
      <symbol
         overflow="visible"
         id="id-7570fdac-00cd-44bb-bd84-0ca3cb94c65f-4">
        <path
           style="stroke:none"
           d=""
           id="id-c3247e72-5fe1-4db2-98e6-f97fe31850d6-4" />
      </symbol>
      <symbol
         overflow="visible"
         id="id-e4cc5205-6cac-4f18-a2f9-32eb4ba37836-7">
        <path
           style="stroke:none"
           d="m 4.8125,-6.65625 c 0,-0.046875 0.015625,-0.109375 0.015625,-0.15625 0,-0.09375 -0.0625,-0.109375 -0.109375,-0.109375 -0.109375,0 -0.109375,0.03125 -0.15625,0.203125 L 2.90625,-0.125 c -0.75,-0.09375 -1.125,-0.46875 -1.125,-1.125 0,-0.203125 0,-0.453125 0.53125,-1.84375 0.046875,-0.125 0.109375,-0.296875 0.109375,-0.5 0,-0.4375 -0.3125,-0.8125 -0.8125,-0.8125 -0.953125,0 -1.3125,1.453125 -1.3125,1.53125 0,0.109375 0.09375,0.109375 0.109375,0.109375 0.109375,0 0.109375,-0.03125 0.15625,-0.1875 0.28125,-0.9375 0.671875,-1.234375 1.015625,-1.234375 0.078125,0 0.25,0 0.25,0.3125 0,0.265625 -0.109375,0.515625 -0.234375,0.859375 C 1.109375,-1.75 1.109375,-1.5 1.109375,-1.328125 1.109375,-0.375 1.890625,0.03125 2.84375,0.09375 2.765625,0.453125 2.765625,0.46875 2.625,1 2.609375,1.109375 2.40625,1.90625 2.40625,1.9375 c 0,0.015625 0,0.109375 0.109375,0.109375 0.03125,0 0.078125,0 0.09375,-0.046875 0.03125,-0.015625 0.09375,-0.265625 0.125,-0.40625 l 0.375,-1.484375 c 0.375,0 1.25,0 2.1875,-1.0625 0.40625,-0.46875 0.609375,-0.90625 0.71875,-1.203125 0.09375,-0.25 0.3125,-1.109375 0.3125,-1.546875 0,-0.5625 -0.265625,-0.703125 -0.4375,-0.703125 -0.25,0 -0.5,0.265625 -0.5,0.484375 0,0.125 0.0625,0.1875 0.15625,0.265625 0.109375,0.109375 0.359375,0.359375 0.359375,0.84375 0,0.640625 -0.515625,1.453125 -0.875,1.8125 -0.875,0.890625 -1.515625,0.890625 -1.875,0.890625 z m 0,0"
           id="id-7a0daddb-474c-464e-a2ba-d9864e4311c7-5" />
      </symbol>
      <symbol
         overflow="visible"
         id="id-63c2f5e2-9267-47bb-a7c7-3ab65726ad18-0">
        <path
           style="stroke:none"
           d="M 6.328125,-5.765625 C 6.4375,-6.171875 6.609375,-6.46875 7.40625,-6.5 c 0.046875,0 0.171875,-0.015625 0.171875,-0.203125 0,0 0,-0.109375 -0.125,-0.109375 -0.328125,0 -0.6875,0.03125 -1.015625,0.03125 -0.34375,0 -0.71875,-0.03125 -1.046875,-0.03125 -0.0625,0 -0.171875,0 -0.171875,0.203125 C 5.21875,-6.5 5.3125,-6.5 5.390625,-6.5 c 0.578125,0.015625 0.6875,0.21875 0.6875,0.4375 0,0.03125 -0.03125,0.1875 -0.03125,0.203125 l -0.90625,3.5625 C 4.8125,-0.953125 3.65625,-0.09375 2.65625,-0.09375 c -0.671875,0 -1.203125,-0.4375 -1.203125,-1.296875 0,-0.015625 0,-0.328125 0.109375,-0.765625 L 2.515625,-6.046875 C 2.609375,-6.40625 2.625,-6.5 3.359375,-6.5 c 0.265625,0 0.34375,0 0.34375,-0.203125 0,-0.109375 -0.109375,-0.109375 -0.140625,-0.109375 -0.28125,0 -1,0.03125 -1.28125,0.03125 -0.28125,0 -1,-0.03125 -1.28125,-0.03125 -0.078125,0 -0.1875,0 -0.1875,0.203125 C 0.8125,-6.5 0.890625,-6.5 1.09375,-6.5 c 0.015625,0 0.203125,0 0.375,0.015625 0.171875,0.03125 0.265625,0.03125 0.265625,0.171875 0,0.046875 -0.109375,0.46875 -0.171875,0.703125 l -0.21875,0.875 C 1.25,-4.34375 0.78125,-2.46875 0.734375,-2.265625 0.671875,-2 0.671875,-1.84375 0.671875,-1.6875 c 0,1.203125 0.90625,1.90625 1.953125,1.90625 1.25,0 2.484375,-1.125 2.8125,-2.4375 z m 0,0"
           id="id-512bfd9a-761b-4c2b-b225-39a53be77db7-7" />
      </symbol>
      <symbol
         overflow="visible"
         id="id-17236045-3db1-4f1a-8f80-f39aff0d4526-3">
        <path
           style="stroke:none"
           d=""
           id="id-33fbc42d-dfaa-4167-ba75-0e5c507c5119-6" />
      </symbol>
      <symbol
         overflow="visible"
         id="id-0347fc18-b9b0-4413-99c7-d5facceb94e6-2">
        <path
           style="stroke:none"
           d="m 3.296875,2.390625 c 0,-0.03125 0,-0.046875 -0.171875,-0.21875 C 1.890625,0.921875 1.5625,-0.96875 1.5625,-2.5 c 0,-1.734375 0.375,-3.46875 1.609375,-4.703125 0.125,-0.125 0.125,-0.140625 0.125,-0.171875 0,-0.078125 -0.03125,-0.109375 -0.09375,-0.109375 -0.109375,0 -1,0.6875 -1.59375,1.953125 -0.5,1.09375 -0.625,2.203125 -0.625,3.03125 0,0.78125 0.109375,1.984375 0.65625,3.125 C 2.25,1.84375 3.09375,2.5 3.203125,2.5 c 0.0625,0 0.09375,-0.03125 0.09375,-0.109375 z m 0,0"
           id="id-59fce13a-5024-4b09-b4d0-1c717193ca18-0" />
      </symbol>
      <symbol
         overflow="visible"
         id="id-fbc366a8-286d-4e76-9f61-2cd1dbe02877-7">
        <path
           style="stroke:none"
           d="m 2.875,-2.5 c 0,-0.765625 -0.109375,-1.96875 -0.65625,-3.109375 -0.59375,-1.21875 -1.453125,-1.875 -1.546875,-1.875 -0.0625,0 -0.109375,0.046875 -0.109375,0.109375 0,0.03125 0,0.046875 0.1875,0.234375 0.984375,0.984375 1.546875,2.5625 1.546875,4.640625 0,1.71875 -0.359375,3.46875 -1.59375,4.71875 C 0.5625,2.34375 0.5625,2.359375 0.5625,2.390625 0.5625,2.453125 0.609375,2.5 0.671875,2.5 0.765625,2.5 1.671875,1.8125 2.25,0.546875 2.765625,-0.546875 2.875,-1.65625 2.875,-2.5 Z m 0,0"
           id="id-1ec95058-d4f2-4e8c-a217-c33b1d18b32f-1" />
      </symbol>
    </g>
  </defs>
  <sodipodi:namedview
     inkscape:window-maximized="1"
     inkscape:window-y="-8"
     inkscape:window-x="-8"
     inkscape:window-height="706"
     inkscape:window-width="1366"
     inkscape:guide-bbox="true"
     showguides="true"
     units="px"
     showgrid="false"
     inkscape:document-rotation="0"
     inkscape:current-layer="layer1"
     inkscape:document-units="mm"
     inkscape:cy="256.27238"
     inkscape:cx="400"
     inkscape:zoom="1.07"
     inkscape:pageshadow="2"
     inkscape:pageopacity="0.0"
     borderopacity="1.0"
     bordercolor="#666666"
     pagecolor="#ffffff"
     id="base">
    <sodipodi:guide
       id="guide2043"
       orientation="1,0"
       position="137.48442,69.73131" />
    <sodipodi:guide
       id="guide2045"
       orientation="0,-1"
       position="137.48442,69.731311" />
  </sodipodi:namedview>
  <metadata
     id="metadata2034">
    <rdf:RDF>
      <cc:Work
         rdf:about="">
        <dc:format>image/svg+xml</dc:format>
        <dc:type
           rdf:resource="http://purl.org/dc/dcmitype/StillImage" />
        <dc:title></dc:title>
      </cc:Work>
    </rdf:RDF>
  </metadata>
  <g
     id="layer1"
     inkscape:groupmode="layer"
     inkscape:label="Capa 1">
    <path
       id="path2039"
       d="m 23.849765,44.718308 c -1.58464,-1.550792 -1.117958,-3.177405 -1.117958,-5.217136 0,-6.618377 1.324245,-6.426152 7.0804,-10.061617 2.013995,-1.271998 4.030499,-2.366664 6.335093,-2.981222 3.223184,-0.859515 8.556657,-2.76624 11.924882,-0.745305 1.214467,0.728679 1.661115,2.301148 2.60857,3.353872 4.66603,5.184481 8.218037,10.865971 10.434272,17.514673 3.124136,9.372409 -2.892766,-7.045584 2.608567,6.707745 0.06218,0.155454 0.277934,2.886501 0.372652,2.981222 0.196406,0.196406 0.548899,0.176247 0.745305,0.372653 3.637851,3.637851 2.337416,9.281519 2.981222,13.788143 0.03928,0.274969 0.305286,0.47584 0.372652,0.745305 0.143425,0.573707 0.31188,6.45664 0,7.080401 -0.711409,1.422818 -1.856383,2.601687 -2.981222,3.726524 -2.776058,2.776061 -6.792817,3.401136 -10.06162,5.217136 -0.542927,0.301628 -0.93509,0.8402 -1.490609,1.11796 -3.868087,1.934043 -8.448329,2.650228 -12.670187,3.353871 -6.794129,1.132356 4.418492,-0.813728 -6.335093,1.490612 -2.812389,0.602652 -7.945152,-0.929843 -10.434273,-1.863264 -2.33836,-0.876885 -5.178263,-4.795891 -6.707747,-6.707746 -1.138965,-1.423707 -1.050256,-2.066663 -1.863263,-4.099179 -0.934079,-2.335196 -1.925021,-4.968002 -2.98122,-7.080398 -0.230861,-0.461722 0.101513,-1.355696 0,-1.863262 -0.873706,-4.36853 -0.444053,-9.250132 1.117957,-13.415494 0.554505,-1.478679 0.592908,-3.027942 1.117958,-4.471831 0.212253,-0.583695 0.77344,-0.973834 1.117958,-1.49061 0.626327,-0.93949 0.795328,-2.013333 1.117957,-2.981222 0.222208,-0.66662 1.100834,-0.905943 1.490611,-1.490609 0.217892,-0.326837 0.09489,-0.840198 0.372652,-1.117957 0.555518,-0.555519 1.58224,-0.309523 2.235916,-0.745305 0.103355,-0.06891 -0.08783,-0.284819 0,-0.372652 0.17567,-0.175671 0.569635,0.17567 0.745305,0 0.176927,-0.176927 0.372653,-1.652477 0.372653,-0.745308"
       style="fill:none;stroke:#000000;stroke-width:0.264583px;stroke-linecap:butt;stroke-linejoin:miter;stroke-opacity:1" />
    <path
       id="path2041"
       d="m 29.0669,64.468895 c 0,-2.360133 0,-4.720264 0,-7.080398 0,-3.368852 3.344,-8.320928 7.0804,-8.943662 1.134219,-0.189037 2.549502,0 3.726527,0 1.118193,0 2.475767,-0.212749 3.353872,0.372652 1.550027,1.033351 6.9539,9.435973 7.825705,11.179577 1.49061,2.981222 2.981219,5.962441 4.471829,8.943663 0.263596,0.52719 1.696262,2.030264 1.11796,2.608569 -0.08784,0.08783 -0.317101,-0.111104 -0.372653,0 -0.111104,0.222205 0.166193,0.560644 0,0.745305 -0.822523,0.913913 -4.890193,4.686723 -6.335096,5.589788 -0.210672,0.13167 -0.523097,-0.111103 -0.745305,0 -3.160619,1.580309 -9.00889,7.264853 -13.042839,4.844484 -1.159933,-0.69596 -0.365667,-1.113303 -1.490609,-1.863264 -3.770625,-2.513748 -4.099179,-7.300627 -4.099179,-11.924882 0,-0.237609 -2.263286,-7.562535 -1.490612,-4.471832 z"
       style="fill:none;stroke:#000000;stroke-width:0.264583px;stroke-linecap:butt;stroke-linejoin:miter;stroke-opacity:1" />
    <path
       id="path2053"
       d="m 52.036369,36.329509 c 7.648099,-4.213733 16.308113,-5.93458 24.974688,-5.93458 6.128332,0 5.315556,-0.09282 14.589175,0.989097 4.518686,0.527179 8.835278,2.289664 13.352788,2.967291 4.94983,0.742474 10.80496,-1.034605 15.331,-1.73092 1.14343,-0.175913 2.31,-0.13929 3.46184,-0.247274 4.4908,-0.421013 9.07296,-0.746054 13.60007,-0.494549 10.56866,0.587148 -0.0465,-0.112609 4.20366,0.494549 0.24479,0.03497 0.49936,-0.0485 0.74183,0 0.25559,0.05112 0.74182,0.507923 0.74182,0.247274 0,-0.116567 -0.16485,0.164849 -0.24727,0.247274 -0.0655,0.06546 -0.64001,0 -0.74183,0"
       style="fill:none;stroke:#000000;stroke-width:0.264583px;stroke-linecap:butt;stroke-linejoin:miter;stroke-opacity:1" />
    <path
       id="path2047"
       d="M 137.48442,9.3964174 V 113.25156"
       style="fill:none;stroke:#000000;stroke-width:0.264583px;stroke-linecap:butt;stroke-linejoin:miter;stroke-opacity:1" />
    <path
       id="path2049"
       d="m 114.7352,62.560355 h 80.3641"
       style="fill:none;stroke:#000000;stroke-width:0.264583px;stroke-linecap:butt;stroke-linejoin:miter;stroke-opacity:1" />
    <path
       id="path2051"
       d="m 161.47001,74.67679 c -2.72457,-0.363119 -5.37881,-1.169649 -7.91277,-2.225466 -0.34026,-0.141777 -0.63149,-0.405148 -0.9891,-0.494548 -0.31985,-0.07997 -0.68605,0.129873 -0.98909,0 -1.863,-0.798428 -6.0095,-3.341884 -6.42913,-5.440032 -0.056,-0.279829 -0.60494,-6.634448 -0.24727,-7.170949 0.19398,-0.290968 0.58543,-0.429043 0.74182,-0.741823 0.16462,-0.32924 0,-4.94044 0,-5.192757 0,-3.139464 -0.0373,-6.247252 -0.24728,-9.396418 -0.0955,-1.433163 -0.6958,-6.319898 -0.24727,-7.665498 0.47884,-1.436513 3.14759,-2.532843 4.45093,-2.967291 3.64627,-1.215422 5.80617,-1.236369 9.6437,-1.236369 0.24893,0 2.07667,-0.132024 2.47274,0 0.91628,0.305424 1.53867,0.862743 2.47274,1.236369 0.53663,0.214654 1.20629,0.232235 1.73092,0.494548 1.13901,0.569505 5.93598,-0.740063 6.92367,0.494549 0.53013,0.662657 0.74313,1.534922 1.23638,2.225469 0.64913,0.908782 1.50921,1.884386 2.22546,2.720014 0.26988,0.314857 0.805,0.620892 0.9891,0.989097 0.18796,0.375915 -0.0499,0.939184 0.24727,1.236372 0.0583,0.05828 0.21042,-0.07372 0.24728,0 0.53423,1.068461 -0.45521,8.474778 -0.24728,10.138238 0.0619,0.494979 0.20195,1.887532 0.49455,2.472742 0.0521,0.10426 0.219,0.134189 0.24728,0.247275 0.34268,1.370732 -0.19818,0.9882 0.49454,2.720014 0.15183,0.379569 0.10915,7.476196 0,7.912772 -0.1568,0.627219 -0.31109,1.180545 -0.49454,1.73092 -0.30084,0.902491 -2.40465,2.315054 -3.21457,2.720015 -0.14744,0.07372 -0.33816,-0.05213 -0.49455,0 -0.22117,0.07372 -0.28603,0.390289 -0.49454,0.494548 -0.37169,0.185846 -1.68945,0.700347 -1.9782,0.989097 -0.0583,0.05828 0.0583,0.188992 0,0.247275 -0.43074,0.430741 -1.25866,0.426979 -1.73092,0.741823 -0.0686,0.04572 0.0737,0.210412 0,0.247274 -0.57848,0.28924 -2.23897,0.377661 -2.47274,0.494549 -0.40362,0.201808 -3.65554,1.430075 -3.70911,1.483643 -0.0583,0.05828 0.0583,0.188991 0,0.247274 -0.0825,0.08255 -0.412,-0.08255 -0.49455,0 -0.0583,0.05828 0.0583,0.188992 0,0.247274 -0.12338,0.123378 -1.87969,0 -2.22547,0 z"
       style="fill:none;stroke:#000000;stroke-width:0.264583px;stroke-linecap:butt;stroke-linejoin:miter;stroke-opacity:1" />
    <path
       id="path2055"
       d="m 142.57331,32.338504 c -0.57697,-0.824248 -1.11322,-1.678556 -1.73091,-2.472742 -0.16003,-0.205743 0.1307,0.50869 0.24727,0.741822 0.33984,0.679691 1.55925,0.974773 1.48364,1.73092 -0.0299,0.298903 -5.82308,5.176084 0,0"
       style="fill:none;stroke:#000000;stroke-width:0.264583px;stroke-linecap:butt;stroke-linejoin:miter;stroke-opacity:1" />
    <g
       id="id-53f4e30a-d2c8-46ad-9bc5-5da5c007e8eb"
       transform="matrix(1.420589,0,0,1.3981846,-72.723587,-173.98625)">
      <g
         style="fill:#000000;fill-opacity:1"
         id="id-ff0502af-763a-4427-9acb-591771a5661b">
        <g
           id="g62"
           transform="translate(148.712,134.765)">
          <path
             style="stroke:none"
             d="M 2.671875,-3.125 H 3.03125 l 1.5,2.3125 C 4.625,-0.65625 4.859375,-0.265625 4.96875,-0.125 5.046875,0 5.078125,0 5.296875,0 h 1.375 c 0.1875,0 0.34375,0 0.34375,-0.171875 0,-0.09375 -0.0625,-0.15625 -0.15625,-0.171875 C 6.484375,-0.421875 6,-1.09375 5.765625,-1.40625 5.6875,-1.5 5.1875,-2.15625 4.53125,-3.234375 5.40625,-3.40625 6.265625,-3.78125 6.265625,-4.96875 6.265625,-6.34375 4.8125,-6.828125 3.625,-6.828125 H 0.5 c -0.1875,0 -0.34375,0 -0.34375,0.171875 0,0.171875 0.1875,0.171875 0.265625,0.171875 0.578125,0 0.625,0.078125 0.625,0.578125 v 4.984375 c 0,0.5 -0.046875,0.578125 -0.625,0.578125 -0.078125,0 -0.265625,0 -0.265625,0.171875 C 0.15625,0 0.3125,0 0.5,0 H 3.234375 C 3.40625,0 3.5625,0 3.5625,-0.171875 c 0,-0.171875 -0.171875,-0.171875 -0.28125,-0.171875 -0.5625,0 -0.609375,-0.078125 -0.609375,-0.578125 z m 1.921875,-0.5 c 0.28125,-0.359375 0.3125,-0.890625 0.3125,-1.328125 0,-0.484375 -0.0625,-1.015625 -0.375,-1.421875 0.40625,0.09375 1.390625,0.40625 1.390625,1.40625 0,0.65625 -0.296875,1.15625 -1.328125,1.34375 z M 2.671875,-5.9375 c 0,-0.21875 0,-0.546875 0.625,-0.546875 0.84375,0 1.265625,0.359375 1.265625,1.53125 0,1.28125 -0.3125,1.46875 -1.890625,1.46875 z M 1.3125,-0.34375 C 1.390625,-0.53125 1.390625,-0.8125 1.390625,-0.890625 V -5.9375 c 0,-0.09375 0,-0.359375 -0.078125,-0.546875 h 1.140625 c -0.125,0.171875 -0.125,0.359375 -0.125,0.515625 v 5.078125 c 0,0.09375 0,0.359375 0.078125,0.546875 z M 3.4375,-3.125 c 0.078125,-0.015625 0.109375,-0.03125 0.1875,-0.03125 0.15625,0 0.375,-0.015625 0.515625,-0.03125 0.15625,0.234375 1.234375,2.015625 2.0625,2.84375 h -0.96875 z m 0,0"
             id="id-aa007867-f03f-4342-b836-d483fd1fcf08" />
        </g>
      </g>
      <g
         style="fill:#000000;fill-opacity:1"
         id="id-2f1f6407-072b-4305-bfd4-e3b53e6ce892">
        <g
           id="g66"
           transform="translate(155.908,131.149)">
          <path
             style="stroke:none"
             d="M 3.984375,-4.625 C 3.984375,-4.640625 4,-4.734375 4,-4.734375 4,-4.78125 3.984375,-4.84375 3.890625,-4.84375 3.75,-4.84375 3.171875,-4.78125 3,-4.765625 c -0.046875,0 -0.15625,0.015625 -0.15625,0.15625 0,0.09375 0.109375,0.09375 0.1875,0.09375 0.328125,0 0.328125,0.0625 0.328125,0.109375 0,0.046875 0,0.09375 -0.015625,0.15625 L 2.9375,-2.65625 c -0.140625,-0.234375 -0.375,-0.421875 -0.71875,-0.421875 -0.890625,0 -1.796875,0.984375 -1.796875,1.984375 0,0.6875 0.453125,1.15625 1.0625,1.15625 0.375,0 0.703125,-0.203125 0.984375,-0.484375 C 2.59375,0 3,0.0625 3.1875,0.0625 c 0.25,0 0.421875,-0.140625 0.546875,-0.359375 0.15625,-0.28125 0.25,-0.671875 0.25,-0.703125 0,-0.09375 -0.09375,-0.09375 -0.109375,-0.09375 -0.109375,0 -0.109375,0.03125 -0.15625,0.21875 C 3.625,-0.53125 3.5,-0.125 3.203125,-0.125 3.03125,-0.125 2.96875,-0.28125 2.96875,-0.46875 c 0,-0.125 0.015625,-0.1875 0.046875,-0.28125 z M 2.5,-0.875 C 2.453125,-0.671875 2.296875,-0.53125 2.140625,-0.40625 2.078125,-0.34375 1.796875,-0.125 1.5,-0.125 c -0.265625,0 -0.515625,-0.1875 -0.515625,-0.671875 0,-0.375 0.203125,-1.140625 0.375,-1.421875 0.3125,-0.5625 0.671875,-0.65625 0.859375,-0.65625 0.484375,0 0.625,0.53125 0.625,0.609375 0,0.015625 -0.015625,0.078125 -0.015625,0.09375 z m 0,0"
             id="id-fe1f74e5-9d13-4f1c-8295-ef3d52e7b493" />
        </g>
      </g>
      <g
         id="g131"
         ns2:jacobian_sqrt="0.352778"
         ns2:alignment="middle center"
         ns2:scale="1.0"
         ns2:preamble="C:\\Users\\JUAN DAVID\\AppData\\Roaming\\inkscape\\extensions\\textext\\default_packages.tex"
         ns2:text="$U$"
         ns2:pdfconverter="inkscape"
         ns2:texconverter="pdflatex"
         ns2:version="1.1.0"
         transform="matrix(0.352778,0,0,0.352778,104.615,65.2654)">
        <defs
           id="id-d35f8d0f-75ef-4a48-b1c8-734827a603d2">
          <g
             id="g2122">
            <symbol
               overflow="visible"
               id="symbol2116">
              <path
                 style="stroke:none"
                 d=""
                 id="path2114" />
            </symbol>
            <symbol
               overflow="visible"
               id="symbol2120">
              <path
                 style="stroke:none"
                 d="M 6.328125,-5.765625 C 6.4375,-6.171875 6.609375,-6.46875 7.40625,-6.5 c 0.046875,0 0.171875,-0.015625 0.171875,-0.203125 0,0 0,-0.109375 -0.125,-0.109375 -0.328125,0 -0.6875,0.03125 -1.015625,0.03125 -0.34375,0 -0.71875,-0.03125 -1.046875,-0.03125 -0.0625,0 -0.171875,0 -0.171875,0.203125 C 5.21875,-6.5 5.3125,-6.5 5.390625,-6.5 c 0.578125,0.015625 0.6875,0.21875 0.6875,0.4375 0,0.03125 -0.03125,0.1875 -0.03125,0.203125 l -0.90625,3.5625 C 4.8125,-0.953125 3.65625,-0.09375 2.65625,-0.09375 c -0.671875,0 -1.203125,-0.4375 -1.203125,-1.296875 0,-0.015625 0,-0.328125 0.109375,-0.765625 L 2.515625,-6.046875 C 2.609375,-6.40625 2.625,-6.5 3.359375,-6.5 c 0.265625,0 0.34375,0 0.34375,-0.203125 0,-0.109375 -0.109375,-0.109375 -0.140625,-0.109375 -0.28125,0 -1,0.03125 -1.28125,0.03125 -0.28125,0 -1,-0.03125 -1.28125,-0.03125 -0.078125,0 -0.1875,0 -0.1875,0.203125 C 0.8125,-6.5 0.890625,-6.5 1.09375,-6.5 c 0.015625,0 0.203125,0 0.375,0.015625 0.171875,0.03125 0.265625,0.03125 0.265625,0.171875 0,0.046875 -0.109375,0.46875 -0.171875,0.703125 l -0.21875,0.875 C 1.25,-4.34375 0.78125,-2.46875 0.734375,-2.265625 0.671875,-2 0.671875,-1.84375 0.671875,-1.6875 c 0,1.203125 0.90625,1.90625 1.953125,1.90625 1.25,0 2.484375,-1.125 2.8125,-2.4375 z m 0,0"
                 id="path2118" />
            </symbol>
          </g>
        </defs>
        <g
           id="id-85bb7073-37c2-451e-bf7e-848c9475a63d"
           transform="translate(-149.384,-127.953)">
          <g
             style="fill:#000000;fill-opacity:1"
             id="id-a8991cc2-1aef-4215-ae26-d1de1bd2e959">
            <g
               id="g127"
               transform="translate(148.712,134.765)" />
          </g>
        </g>
      </g>
    </g>
    <g
       id="g199"
       ns2:jacobian_sqrt="0.352778"
       ns2:alignment="middle center"
       ns2:scale="1.0"
       ns2:preamble="C:\\Users\\JUAN DAVID\\AppData\\Roaming\\inkscape\\extensions\\textext\\default_packages.tex"
       ns2:text="$U$"
       ns2:pdfconverter="inkscape"
       ns2:texconverter="pdflatex"
       ns2:version="1.1.0"
       transform="matrix(1.017062,0,0,1.036182,33.826481,38.963041)">
      <defs
         id="id-25d30705-ae7e-4dca-8ee2-7f289918eb42">
        <g
           id="g2177">
          <symbol
             overflow="visible"
             id="symbol2171">
            <path
               style="stroke:none"
               d=""
               id="path2169" />
          </symbol>
          <symbol
             overflow="visible"
             id="symbol2175">
            <path
               style="stroke:none"
               d="M 6.328125,-5.765625 C 6.4375,-6.171875 6.609375,-6.46875 7.40625,-6.5 c 0.046875,0 0.171875,-0.015625 0.171875,-0.203125 0,0 0,-0.109375 -0.125,-0.109375 -0.328125,0 -0.6875,0.03125 -1.015625,0.03125 -0.34375,0 -0.71875,-0.03125 -1.046875,-0.03125 -0.0625,0 -0.171875,0 -0.171875,0.203125 C 5.21875,-6.5 5.3125,-6.5 5.390625,-6.5 c 0.578125,0.015625 0.6875,0.21875 0.6875,0.4375 0,0.03125 -0.03125,0.1875 -0.03125,0.203125 l -0.90625,3.5625 C 4.8125,-0.953125 3.65625,-0.09375 2.65625,-0.09375 c -0.671875,0 -1.203125,-0.4375 -1.203125,-1.296875 0,-0.015625 0,-0.328125 0.109375,-0.765625 L 2.515625,-6.046875 C 2.609375,-6.40625 2.625,-6.5 3.359375,-6.5 c 0.265625,0 0.34375,0 0.34375,-0.203125 0,-0.109375 -0.109375,-0.109375 -0.140625,-0.109375 -0.28125,0 -1,0.03125 -1.28125,0.03125 -0.28125,0 -1,-0.03125 -1.28125,-0.03125 -0.078125,0 -0.1875,0 -0.1875,0.203125 C 0.8125,-6.5 0.890625,-6.5 1.09375,-6.5 c 0.015625,0 0.203125,0 0.375,0.015625 0.171875,0.03125 0.265625,0.03125 0.265625,0.171875 0,0.046875 -0.109375,0.46875 -0.171875,0.703125 l -0.21875,0.875 C 1.25,-4.34375 0.78125,-2.46875 0.734375,-2.265625 0.671875,-2 0.671875,-1.84375 0.671875,-1.6875 c 0,1.203125 0.90625,1.90625 1.953125,1.90625 1.25,0 2.484375,-1.125 2.8125,-2.4375 z m 0,0"
               id="path2173" />
          </symbol>
        </g>
      </defs>
      <g
         id="id-43a6b051-f3d6-4750-86ba-c0713743f319"
         transform="translate(-149.384,-127.953)">
        <g
           style="fill:#000000;fill-opacity:1"
           id="id-df067962-7c8e-4bf4-83d8-cfff1cbcb664">
          <g
             id="g195"
             transform="translate(148.712,134.765)">
            <path
               style="stroke:none"
               d="M 6.328125,-5.765625 C 6.4375,-6.171875 6.609375,-6.46875 7.40625,-6.5 c 0.046875,0 0.171875,-0.015625 0.171875,-0.203125 0,0 0,-0.109375 -0.125,-0.109375 -0.328125,0 -0.6875,0.03125 -1.015625,0.03125 -0.34375,0 -0.71875,-0.03125 -1.046875,-0.03125 -0.0625,0 -0.171875,0 -0.171875,0.203125 C 5.21875,-6.5 5.3125,-6.5 5.390625,-6.5 c 0.578125,0.015625 0.6875,0.21875 0.6875,0.4375 0,0.03125 -0.03125,0.1875 -0.03125,0.203125 l -0.90625,3.5625 C 4.8125,-0.953125 3.65625,-0.09375 2.65625,-0.09375 c -0.671875,0 -1.203125,-0.4375 -1.203125,-1.296875 0,-0.015625 0,-0.328125 0.109375,-0.765625 L 2.515625,-6.046875 C 2.609375,-6.40625 2.625,-6.5 3.359375,-6.5 c 0.265625,0 0.34375,0 0.34375,-0.203125 0,-0.109375 -0.109375,-0.109375 -0.140625,-0.109375 -0.28125,0 -1,0.03125 -1.28125,0.03125 -0.28125,0 -1,-0.03125 -1.28125,-0.03125 -0.078125,0 -0.1875,0 -0.1875,0.203125 C 0.8125,-6.5 0.890625,-6.5 1.09375,-6.5 c 0.015625,0 0.203125,0 0.375,0.015625 0.171875,0.03125 0.265625,0.03125 0.265625,0.171875 0,0.046875 -0.109375,0.46875 -0.171875,0.703125 l -0.21875,0.875 C 1.25,-4.34375 0.78125,-2.46875 0.734375,-2.265625 0.671875,-2 0.671875,-1.84375 0.671875,-1.6875 c 0,1.203125 0.90625,1.90625 1.953125,1.90625 1.25,0 2.484375,-1.125 2.8125,-2.4375 z m 0,0"
               id="id-0e0a5d90-d169-4697-a11c-d9d69bbfd4dd" />
          </g>
        </g>
      </g>
    </g>
    <g
       transform="matrix(1.01706 0 0 1.03618 32.2611 15.0161)"
       ns2:version="1.1.0"
       ns2:texconverter="pdflatex"
       ns2:pdfconverter="inkscape"
       ns2:text="$M$"
       ns2:preamble="C:\\Users\\JUAN DAVID\\AppData\\Roaming\\inkscape\\extensions\\textext\\default_packages.tex"
       ns2:scale="2.909981595304453"
       ns2:alignment="middle center"
       ns2:jacobian_sqrt="1.0265754871415935"
       id="g2287">
      <defs
         id="id-8b9cd88f-9fde-4090-8f88-7fa42b635f17">
        <g
           id="id-6ef60332-3ee3-4066-8568-2f551dec3bdd">
          <symbol
             id="id-ebdf9e46-6d42-4f86-8400-0c512fadc88a"
             overflow="visible">
            <path
               id="id-39a7ad5f-5203-4713-8036-e3fdb1084e9e"
               d=""
               style="stroke:none" />
          </symbol>
          <symbol
             id="id-fc0da834-e35f-4359-a15c-2a7d297a3ca4"
             overflow="visible">
            <path
               id="id-a648fffe-5e47-42d0-915c-7462eb6c258a"
               d="M 9.234375,-6.046875 C 9.328125,-6.40625 9.34375,-6.5 10.09375,-6.5 c 0.21875,0 0.3125,0 0.3125,-0.203125 0,-0.109375 -0.09375,-0.109375 -0.265625,-0.109375 h -1.3125 c -0.265625,0 -0.28125,0 -0.390625,0.1875 L 4.796875,-0.9375 4.015625,-6.578125 C 3.984375,-6.8125 3.96875,-6.8125 3.703125,-6.8125 H 2.34375 c -0.1875,0 -0.296875,0 -0.296875,0.1875 0,0.125 0.09375,0.125 0.28125,0.125 0.140625,0 0.3125,0.015625 0.4375,0.015625 0.15625,0.03125 0.21875,0.046875 0.21875,0.171875 0,0.03125 -0.015625,0.0625 -0.046875,0.1875 l -1.265625,5.0625 c -0.09375,0.40625 -0.265625,0.71875 -1.078125,0.75 -0.046875,0 -0.171875,0.015625 -0.171875,0.1875 0,0.09375 0.0625,0.125 0.140625,0.125 0.3125,0 0.65625,-0.03125 1,-0.03125 C 1.890625,-0.03125 2.25,0 2.578125,0 c 0.046875,0 0.1875,0 0.1875,-0.203125 0,-0.109375 -0.109375,-0.109375 -0.1875,-0.109375 -0.5625,0 -0.671875,-0.203125 -0.671875,-0.4375 0,-0.0625 0,-0.125 0.03125,-0.234375 L 3.296875,-6.40625 H 3.3125 l 0.859375,6.171875 C 4.1875,-0.109375 4.203125,0 4.3125,0 4.421875,0 4.484375,-0.109375 4.53125,-0.171875 l 4.03125,-6.3125 h 0.015625 l -1.4375,5.703125 c -0.09375,0.390625 -0.109375,0.46875 -0.90625,0.46875 -0.15625,0 -0.265625,0 -0.265625,0.1875 C 5.96875,0 6.078125,0 6.109375,0 6.390625,0 7.0625,-0.03125 7.34375,-0.03125 7.75,-0.03125 8.1875,0 8.59375,0 8.65625,0 8.78125,0 8.78125,-0.203125 8.78125,-0.3125 8.6875,-0.3125 8.5,-0.3125 c -0.359375,0 -0.640625,0 -0.640625,-0.171875 0,-0.046875 0,-0.0625 0.046875,-0.25 z m 0,0"
               style="stroke:none" />
          </symbol>
        </g>
      </defs>
      <g
         transform="translate(-149.134, -127.953)"
         id="id-6c1b07b8-abad-4780-8816-5a24a2b7c377">
        <g
           id="id-75e667b3-5267-4b2b-acfa-218c7f9923d8"
           style="fill:#000000;fill-opacity:1">
          <g
             transform="translate(148.712, 134.765)"
             id="g2283">
            <path
               id="id-4ab866e5-f0fb-439e-9b63-c9537cc6a38c"
               d="M 9.234375,-6.046875 C 9.328125,-6.40625 9.34375,-6.5 10.09375,-6.5 c 0.21875,0 0.3125,0 0.3125,-0.203125 0,-0.109375 -0.09375,-0.109375 -0.265625,-0.109375 h -1.3125 c -0.265625,0 -0.28125,0 -0.390625,0.1875 L 4.796875,-0.9375 4.015625,-6.578125 C 3.984375,-6.8125 3.96875,-6.8125 3.703125,-6.8125 H 2.34375 c -0.1875,0 -0.296875,0 -0.296875,0.1875 0,0.125 0.09375,0.125 0.28125,0.125 0.140625,0 0.3125,0.015625 0.4375,0.015625 0.15625,0.03125 0.21875,0.046875 0.21875,0.171875 0,0.03125 -0.015625,0.0625 -0.046875,0.1875 l -1.265625,5.0625 c -0.09375,0.40625 -0.265625,0.71875 -1.078125,0.75 -0.046875,0 -0.171875,0.015625 -0.171875,0.1875 0,0.09375 0.0625,0.125 0.140625,0.125 0.3125,0 0.65625,-0.03125 1,-0.03125 C 1.890625,-0.03125 2.25,0 2.578125,0 c 0.046875,0 0.1875,0 0.1875,-0.203125 0,-0.109375 -0.109375,-0.109375 -0.1875,-0.109375 -0.5625,0 -0.671875,-0.203125 -0.671875,-0.4375 0,-0.0625 0,-0.125 0.03125,-0.234375 L 3.296875,-6.40625 H 3.3125 l 0.859375,6.171875 C 4.1875,-0.109375 4.203125,0 4.3125,0 4.421875,0 4.484375,-0.109375 4.53125,-0.171875 l 4.03125,-6.3125 h 0.015625 l -1.4375,5.703125 c -0.09375,0.390625 -0.109375,0.46875 -0.90625,0.46875 -0.15625,0 -0.265625,0 -0.265625,0.1875 C 5.96875,0 6.078125,0 6.109375,0 6.390625,0 7.0625,-0.03125 7.34375,-0.03125 7.75,-0.03125 8.1875,0 8.59375,0 8.65625,0 8.78125,0 8.78125,-0.203125 8.78125,-0.3125 8.6875,-0.3125 8.5,-0.3125 c -0.359375,0 -0.640625,0 -0.640625,-0.171875 0,-0.046875 0,-0.0625 0.046875,-0.25 z m 0,0"
               style="stroke:none" />
          </g>
        </g>
      </g>
    </g>
    <g
       transform="matrix(1.01706 0 0 1.03618 87.3711 20.8249)"
       ns2:version="1.1.0"
       ns2:texconverter="pdflatex"
       ns2:pdfconverter="inkscape"
       ns2:text="$\\varphi$"
       ns2:preamble="C:\\Users\\JUAN DAVID\\AppData\\Roaming\\inkscape\\extensions\\textext\\default_packages.tex"
       ns2:scale="2.90998167681475"
       ns2:alignment="middle center"
       ns2:jacobian_sqrt="1.0265754871415935"
       id="g2791">
      <defs
         id="id-b40d462f-ea20-4817-a18a-cd4e86bec998">
        <g
           id="id-82f9f4c0-045a-4cda-bfc6-6331f172b027">
          <symbol
             id="id-99c35b09-3cbf-4a9c-8416-630b37971429"
             overflow="visible">
            <path
               id="id-75e35088-ff96-4f50-a2e8-5e9f2ac34f72"
               d=""
               style="stroke:none" />
          </symbol>
          <symbol
             id="id-47184f22-86a5-4ee1-a35b-8712b6749421"
             overflow="visible">
            <path
               id="id-0e589b1f-a400-4808-9798-32c906e3faa5"
               d="M 1.6875,1.6875 C 1.65625,1.828125 1.640625,1.84375 1.640625,1.890625 c 0,0.21875 0.1875,0.28125 0.296875,0.28125 0.046875,0 0.265625,-0.03125 0.359375,-0.265625 C 2.328125,1.828125 2.375,1.5 2.65625,0.09375 c 0.078125,0 0.15625,0.015625 0.328125,0.015625 1.65625,0 3.1875,-1.5625 3.1875,-3.140625 0,-0.78125 -0.390625,-1.375 -1.140625,-1.375 -1.4375,0 -2.046875,1.9375 -2.640625,3.875 C 1.3125,-0.734375 0.75,-1.28125 0.75,-2 c 0,-0.28125 0.234375,-1.375 0.828125,-2.0625 0.09375,-0.09375 0.09375,-0.109375 0.09375,-0.140625 0,-0.03125 -0.03125,-0.09375 -0.125,-0.09375 -0.28125,0 -1.046875,1.453125 -1.046875,2.40625 0,0.9375 0.65625,1.65625 1.71875,1.90625 z m 1.390625,-2.15625 c -0.09375,0 -0.109375,0 -0.1875,-0.015625 -0.125,0 -0.125,0 -0.125,-0.03125 0,-0.015625 0.171875,-0.9375 0.1875,-1.078125 0.3125,-1.28125 1.09375,-2.234375 1.984375,-2.234375 0.6875,0 0.953125,0.53125 0.953125,1.015625 0,1.125 -1.28125,2.34375 -2.8125,2.34375 z m 0,0"
               style="stroke:none" />
          </symbol>
        </g>
      </defs>
      <g
         transform="translate(-149.212, -130.359)"
         id="id-a09f901e-581a-4d9c-b261-67cad9820214">
        <g
           id="id-fcafeaf7-a809-4563-a1ec-a80e8ddb5446"
           style="fill:#000000;fill-opacity:1">
          <g
             transform="translate(148.712, 134.765)"
             id="g2787">
            <path
               id="id-33cf1016-2303-41b7-998b-e0dd590b3eda"
               d="M 1.6875,1.6875 C 1.65625,1.828125 1.640625,1.84375 1.640625,1.890625 c 0,0.21875 0.1875,0.28125 0.296875,0.28125 0.046875,0 0.265625,-0.03125 0.359375,-0.265625 C 2.328125,1.828125 2.375,1.5 2.65625,0.09375 c 0.078125,0 0.15625,0.015625 0.328125,0.015625 1.65625,0 3.1875,-1.5625 3.1875,-3.140625 0,-0.78125 -0.390625,-1.375 -1.140625,-1.375 -1.4375,0 -2.046875,1.9375 -2.640625,3.875 C 1.3125,-0.734375 0.75,-1.28125 0.75,-2 c 0,-0.28125 0.234375,-1.375 0.828125,-2.0625 0.09375,-0.09375 0.09375,-0.109375 0.09375,-0.140625 0,-0.03125 -0.03125,-0.09375 -0.125,-0.09375 -0.28125,0 -1.046875,1.453125 -1.046875,2.40625 0,0.9375 0.65625,1.65625 1.71875,1.90625 z m 1.390625,-2.15625 c -0.09375,0 -0.109375,0 -0.1875,-0.015625 -0.125,0 -0.125,0 -0.125,-0.03125 0,-0.015625 0.171875,-0.9375 0.1875,-1.078125 0.3125,-1.28125 1.09375,-2.234375 1.984375,-2.234375 0.6875,0 0.953125,0.53125 0.953125,1.015625 0,1.125 -1.28125,2.34375 -2.8125,2.34375 z m 0,0"
               style="stroke:none" />
          </g>
        </g>
      </g>
    </g>
    <g
       transform="matrix(1.01706 0 0 1.03618 148.494 20.0343)"
       ns2:version="1.1.0"
       ns2:texconverter="pdflatex"
       ns2:pdfconverter="inkscape"
       ns2:text="$\\varphi(U)$"
       ns2:preamble="C:\\Users\\JUAN DAVID\\AppData\\Roaming\\inkscape\\extensions\\textext\\default_packages.tex"
       ns2:scale="2.90998167681475"
       ns2:alignment="middle center"
       ns2:jacobian_sqrt="1.0265754871415935"
       id="g2942">
      <defs
         id="id-63e815c5-9853-4c8b-a809-80eb04e15711">
        <g
           id="id-81aad466-7fe6-4deb-9f4c-670b9589f0d2">
          <symbol
             id="id-b00916b2-0445-4986-ac6e-3efe5bcf4d72"
             overflow="visible">
            <path
               id="id-b66b9f15-e6cb-40b7-ae42-a248086b95c5"
               d=""
               style="stroke:none" />
          </symbol>
          <symbol
             id="id-816a0624-c748-4d7b-853e-a885b5385f44"
             overflow="visible">
            <path
               id="id-c2d7c48b-965d-4d14-b0f0-dce2148c9786"
               d="M 1.6875,1.6875 C 1.65625,1.828125 1.640625,1.84375 1.640625,1.890625 c 0,0.21875 0.1875,0.28125 0.296875,0.28125 0.046875,0 0.265625,-0.03125 0.359375,-0.265625 C 2.328125,1.828125 2.375,1.5 2.65625,0.09375 c 0.078125,0 0.15625,0.015625 0.328125,0.015625 1.65625,0 3.1875,-1.5625 3.1875,-3.140625 0,-0.78125 -0.390625,-1.375 -1.140625,-1.375 -1.4375,0 -2.046875,1.9375 -2.640625,3.875 C 1.3125,-0.734375 0.75,-1.28125 0.75,-2 c 0,-0.28125 0.234375,-1.375 0.828125,-2.0625 0.09375,-0.09375 0.09375,-0.109375 0.09375,-0.140625 0,-0.03125 -0.03125,-0.09375 -0.125,-0.09375 -0.28125,0 -1.046875,1.453125 -1.046875,2.40625 0,0.9375 0.65625,1.65625 1.71875,1.90625 z m 1.390625,-2.15625 c -0.09375,0 -0.109375,0 -0.1875,-0.015625 -0.125,0 -0.125,0 -0.125,-0.03125 0,-0.015625 0.171875,-0.9375 0.1875,-1.078125 0.3125,-1.28125 1.09375,-2.234375 1.984375,-2.234375 0.6875,0 0.953125,0.53125 0.953125,1.015625 0,1.125 -1.28125,2.34375 -2.8125,2.34375 z m 0,0"
               style="stroke:none" />
          </symbol>
          <symbol
             id="id-d1094706-989c-40ff-9b45-f0bcc25cdd57"
             overflow="visible">
            <path
               id="id-db8836bf-c577-4bd7-9ff7-239a6fef2919"
               d="M 6.328125,-5.765625 C 6.4375,-6.171875 6.609375,-6.46875 7.40625,-6.5 c 0.046875,0 0.171875,-0.015625 0.171875,-0.203125 0,0 0,-0.109375 -0.125,-0.109375 -0.328125,0 -0.6875,0.03125 -1.015625,0.03125 -0.34375,0 -0.71875,-0.03125 -1.046875,-0.03125 -0.0625,0 -0.171875,0 -0.171875,0.203125 C 5.21875,-6.5 5.3125,-6.5 5.390625,-6.5 c 0.578125,0.015625 0.6875,0.21875 0.6875,0.4375 0,0.03125 -0.03125,0.1875 -0.03125,0.203125 l -0.90625,3.5625 C 4.8125,-0.953125 3.65625,-0.09375 2.65625,-0.09375 c -0.671875,0 -1.203125,-0.4375 -1.203125,-1.296875 0,-0.015625 0,-0.328125 0.109375,-0.765625 L 2.515625,-6.046875 C 2.609375,-6.40625 2.625,-6.5 3.359375,-6.5 c 0.265625,0 0.34375,0 0.34375,-0.203125 0,-0.109375 -0.109375,-0.109375 -0.140625,-0.109375 -0.28125,0 -1,0.03125 -1.28125,0.03125 -0.28125,0 -1,-0.03125 -1.28125,-0.03125 -0.078125,0 -0.1875,0 -0.1875,0.203125 C 0.8125,-6.5 0.890625,-6.5 1.09375,-6.5 c 0.015625,0 0.203125,0 0.375,0.015625 0.171875,0.03125 0.265625,0.03125 0.265625,0.171875 0,0.046875 -0.109375,0.46875 -0.171875,0.703125 l -0.21875,0.875 C 1.25,-4.34375 0.78125,-2.46875 0.734375,-2.265625 0.671875,-2 0.671875,-1.84375 0.671875,-1.6875 c 0,1.203125 0.90625,1.90625 1.953125,1.90625 1.25,0 2.484375,-1.125 2.8125,-2.4375 z m 0,0"
               style="stroke:none" />
          </symbol>
          <symbol
             id="id-bb252b71-05e2-4fd2-ba2e-9d282b9f6b5c"
             overflow="visible">
            <path
               id="id-32768039-6eac-4cd9-abe0-5aa5b8bbbf53"
               d=""
               style="stroke:none" />
          </symbol>
          <symbol
             id="id-dc9d0d26-38d8-4dfd-8731-96c1cacc27f7"
             overflow="visible">
            <path
               id="id-66783c17-5a46-4f44-8a54-a827763759f5"
               d="m 3.296875,2.390625 c 0,-0.03125 0,-0.046875 -0.171875,-0.21875 C 1.890625,0.921875 1.5625,-0.96875 1.5625,-2.5 c 0,-1.734375 0.375,-3.46875 1.609375,-4.703125 0.125,-0.125 0.125,-0.140625 0.125,-0.171875 0,-0.078125 -0.03125,-0.109375 -0.09375,-0.109375 -0.109375,0 -1,0.6875 -1.59375,1.953125 -0.5,1.09375 -0.625,2.203125 -0.625,3.03125 0,0.78125 0.109375,1.984375 0.65625,3.125 C 2.25,1.84375 3.09375,2.5 3.203125,2.5 c 0.0625,0 0.09375,-0.03125 0.09375,-0.109375 z m 0,0"
               style="stroke:none" />
          </symbol>
          <symbol
             id="id-d997dc53-dd8a-4596-8d4b-5a077294bef0"
             overflow="visible">
            <path
               id="id-49d2423d-3329-44b6-89d8-01d11fc4b13f"
               d="m 2.875,-2.5 c 0,-0.765625 -0.109375,-1.96875 -0.65625,-3.109375 -0.59375,-1.21875 -1.453125,-1.875 -1.546875,-1.875 -0.0625,0 -0.109375,0.046875 -0.109375,0.109375 0,0.03125 0,0.046875 0.1875,0.234375 0.984375,0.984375 1.546875,2.5625 1.546875,4.640625 0,1.71875 -0.359375,3.46875 -1.59375,4.71875 C 0.5625,2.34375 0.5625,2.359375 0.5625,2.390625 0.5625,2.453125 0.609375,2.5 0.671875,2.5 0.765625,2.5 1.671875,1.8125 2.25,0.546875 2.765625,-0.546875 2.875,-1.65625 2.875,-2.5 Z m 0,0"
               style="stroke:none" />
          </symbol>
        </g>
      </defs>
      <g
         transform="translate(-149.212, -127.281)"
         id="id-f1c8ccf9-6b65-4307-85e1-5794d1cc920b">
        <g
           id="id-2d880669-fba0-4e94-beda-92ea9152d88f"
           style="fill:#000000;fill-opacity:1">
          <g
             transform="translate(148.712, 134.765)"
             id="g2926">
            <path
               id="id-407dc38f-83e6-4d8b-9042-0ee88e20bff6"
               d="M 1.6875,1.6875 C 1.65625,1.828125 1.640625,1.84375 1.640625,1.890625 c 0,0.21875 0.1875,0.28125 0.296875,0.28125 0.046875,0 0.265625,-0.03125 0.359375,-0.265625 C 2.328125,1.828125 2.375,1.5 2.65625,0.09375 c 0.078125,0 0.15625,0.015625 0.328125,0.015625 1.65625,0 3.1875,-1.5625 3.1875,-3.140625 0,-0.78125 -0.390625,-1.375 -1.140625,-1.375 -1.4375,0 -2.046875,1.9375 -2.640625,3.875 C 1.3125,-0.734375 0.75,-1.28125 0.75,-2 c 0,-0.28125 0.234375,-1.375 0.828125,-2.0625 0.09375,-0.09375 0.09375,-0.109375 0.09375,-0.140625 0,-0.03125 -0.03125,-0.09375 -0.125,-0.09375 -0.28125,0 -1.046875,1.453125 -1.046875,2.40625 0,0.9375 0.65625,1.65625 1.71875,1.90625 z m 1.390625,-2.15625 c -0.09375,0 -0.109375,0 -0.1875,-0.015625 -0.125,0 -0.125,0 -0.125,-0.03125 0,-0.015625 0.171875,-0.9375 0.1875,-1.078125 0.3125,-1.28125 1.09375,-2.234375 1.984375,-2.234375 0.6875,0 0.953125,0.53125 0.953125,1.015625 0,1.125 -1.28125,2.34375 -2.8125,2.34375 z m 0,0"
               style="stroke:none" />
          </g>
        </g>
        <g
           id="id-13ff80ea-9973-47d3-9da6-adc5873d6276"
           style="fill:#000000;fill-opacity:1">
          <g
             transform="translate(155.23, 134.765)"
             id="g2930">
            <path
               id="id-788b93c3-45b9-48b0-8601-886a4d7abd17"
               d="m 3.296875,2.390625 c 0,-0.03125 0,-0.046875 -0.171875,-0.21875 C 1.890625,0.921875 1.5625,-0.96875 1.5625,-2.5 c 0,-1.734375 0.375,-3.46875 1.609375,-4.703125 0.125,-0.125 0.125,-0.140625 0.125,-0.171875 0,-0.078125 -0.03125,-0.109375 -0.09375,-0.109375 -0.109375,0 -1,0.6875 -1.59375,1.953125 -0.5,1.09375 -0.625,2.203125 -0.625,3.03125 0,0.78125 0.109375,1.984375 0.65625,3.125 C 2.25,1.84375 3.09375,2.5 3.203125,2.5 c 0.0625,0 0.09375,-0.03125 0.09375,-0.109375 z m 0,0"
               style="stroke:none" />
          </g>
        </g>
        <g
           id="id-6eeee362-665d-4a7c-a653-463db2af5b2a"
           style="fill:#000000;fill-opacity:1">
          <g
             transform="translate(159.104, 134.765)"
             id="g2934">
            <path
               id="id-e1970832-be46-44c9-a49f-54468135f28e"
               d="M 6.328125,-5.765625 C 6.4375,-6.171875 6.609375,-6.46875 7.40625,-6.5 c 0.046875,0 0.171875,-0.015625 0.171875,-0.203125 0,0 0,-0.109375 -0.125,-0.109375 -0.328125,0 -0.6875,0.03125 -1.015625,0.03125 -0.34375,0 -0.71875,-0.03125 -1.046875,-0.03125 -0.0625,0 -0.171875,0 -0.171875,0.203125 C 5.21875,-6.5 5.3125,-6.5 5.390625,-6.5 c 0.578125,0.015625 0.6875,0.21875 0.6875,0.4375 0,0.03125 -0.03125,0.1875 -0.03125,0.203125 l -0.90625,3.5625 C 4.8125,-0.953125 3.65625,-0.09375 2.65625,-0.09375 c -0.671875,0 -1.203125,-0.4375 -1.203125,-1.296875 0,-0.015625 0,-0.328125 0.109375,-0.765625 L 2.515625,-6.046875 C 2.609375,-6.40625 2.625,-6.5 3.359375,-6.5 c 0.265625,0 0.34375,0 0.34375,-0.203125 0,-0.109375 -0.109375,-0.109375 -0.140625,-0.109375 -0.28125,0 -1,0.03125 -1.28125,0.03125 -0.28125,0 -1,-0.03125 -1.28125,-0.03125 -0.078125,0 -0.1875,0 -0.1875,0.203125 C 0.8125,-6.5 0.890625,-6.5 1.09375,-6.5 c 0.015625,0 0.203125,0 0.375,0.015625 0.171875,0.03125 0.265625,0.03125 0.265625,0.171875 0,0.046875 -0.109375,0.46875 -0.171875,0.703125 l -0.21875,0.875 C 1.25,-4.34375 0.78125,-2.46875 0.734375,-2.265625 0.671875,-2 0.671875,-1.84375 0.671875,-1.6875 c 0,1.203125 0.90625,1.90625 1.953125,1.90625 1.25,0 2.484375,-1.125 2.8125,-2.4375 z m 0,0"
               style="stroke:none" />
          </g>
        </g>
        <g
           id="id-b93bde8f-9f4f-40cb-a470-e24b968fb74c"
           style="fill:#000000;fill-opacity:1">
          <g
             transform="translate(166.992, 134.765)"
             id="g2938">
            <path
               id="id-41cb6cc2-63da-4c4b-9d01-c247a0e7defa"
               d="m 2.875,-2.5 c 0,-0.765625 -0.109375,-1.96875 -0.65625,-3.109375 -0.59375,-1.21875 -1.453125,-1.875 -1.546875,-1.875 -0.0625,0 -0.109375,0.046875 -0.109375,0.109375 0,0.03125 0,0.046875 0.1875,0.234375 0.984375,0.984375 1.546875,2.5625 1.546875,4.640625 0,1.71875 -0.359375,3.46875 -1.59375,4.71875 C 0.5625,2.34375 0.5625,2.359375 0.5625,2.390625 0.5625,2.453125 0.609375,2.5 0.671875,2.5 0.765625,2.5 1.671875,1.8125 2.25,0.546875 2.765625,-0.546875 2.875,-1.65625 2.875,-2.5 Z m 0,0"
               style="stroke:none" />
          </g>
        </g>
      </g>
    </g>
  </g>
</svg>
